<?xml version="1.0" encoding="utf-8"?>
<!-- Generator: Adobe Illustrator 16.0.0, SVG Export Plug-In . SVG Version: 6.00 Build 0)  -->
<!DOCTYPE svg PUBLIC "-//W3C//DTD SVG 1.1//EN" "http://www.w3.org/Graphics/SVG/1.1/DTD/svg11.dtd">
<svg version="1.1" id="frigo" xmlns="http://www.w3.org/2000/svg" xmlns:xlink="http://www.w3.org/1999/xlink" x="0px" y="0px"
	 width="400px" height="500px" viewBox="0 0 400 500" enable-background="new 0 0 400 500" xml:space="preserve">
<path fill="#FFFFFF" d="M301.643,49.301v399.4H103.542v-399.4H301.643 M314.161,18.943H91.023c-9.852,0-17.838,7.986-17.838,17.838
	V461.22c0,9.852,7.986,17.838,17.838,17.838h223.138c9.853,0,17.839-7.986,17.839-17.838V36.781
	C332,26.93,324.014,18.943,314.161,18.943L314.161,18.943z"/>
<path fill="#FFFFFF" d="M133.74,174.71L133.74,174.71c-3.452,0-6.251-2.799-6.251-6.25V98.943c0-3.453,2.799-6.251,6.251-6.251l0,0
	c3.451,0,6.25,2.798,6.25,6.251v69.517C139.99,171.911,137.191,174.71,133.74,174.71z"/>
<path fill="#FFFFFF" d="M133.74,417.927L133.74,417.927c-3.452,0-6.251-2.799-6.251-6.251V195.871c0-3.451,2.799-6.25,6.251-6.25
	l0,0c3.451,0,6.25,2.799,6.25,6.25v215.805C139.99,415.128,137.191,417.927,133.74,417.927z"/>
</svg>
