<?xml version="1.0" encoding="utf-8"?>
<!-- Generator: Adobe Illustrator 16.0.0, SVG Export Plug-In . SVG Version: 6.00 Build 0)  -->
<!DOCTYPE svg PUBLIC "-//W3C//DTD SVG 1.1//EN" "http://www.w3.org/Graphics/SVG/1.1/DTD/svg11.dtd">
<svg version="1.1" id="montre" xmlns="http://www.w3.org/2000/svg" xmlns:xlink="http://www.w3.org/1999/xlink" x="0px" y="0px"
	 width="637px" height="466px" viewBox="0 0 637 466" enable-background="new 0 0 637 466" xml:space="preserve">
<circle fill="#F2EEE9" cx="283.864" cy="241.841" r="136.625"/>
<path fill="#E62450" d="M373.242,108.15c0,0,11.502,5.047,13.38,14.321l11.151-9.625c0,0-3.756-12.089-13.615-14.672L373.242,108.15
	z"/>
<path fill="#E62450" d="M373.242,108.62c0,0,2.464,7.278-6.339,10.564l9.978,8.92c0,0,5.281-7.512,9.741-5.633l-0.469-12.148
	L373.242,108.62z"/>
<path fill="#0C2C55" d="M281.047,397.246c-84.914,0-153.996-69.082-153.996-153.996S196.133,89.254,281.047,89.254
	s153.997,69.082,153.997,153.996S365.961,397.246,281.047,397.246z M281.047,113.667c-71.451,0-129.582,58.131-129.582,129.583
	c0,71.451,58.131,129.582,129.582,129.582c71.453,0,129.582-58.131,129.582-129.582C410.629,171.798,352.5,113.667,281.047,113.667z
	"/>
<path fill="#E62450" d="M266.258,88.08c0,0,2.431,10.094,17.883,10.094s17.096-10.094,17.096-10.094V73.995h-34.979V88.08z"/>
<g>
	<path fill="#E62450" d="M310.508,37.021h-52.23h-0.5v33.042c0,0-0.176,2.369,1.922,4.251V39.956h3.037v36.049
		c1.301,0.481,2.963,0.964,4.852,1.414V41.208h4.227v37.089c1.758,0.315,3.592,0.586,5.43,0.792V42.616h3.694v36.796
		c1.081,0.064,2.14,0.099,3.161,0.099c0.551,0,1.142-0.025,1.752-0.065V42.616h3.695v36.417c1.465-0.217,2.982-0.495,4.49-0.803
		V41.991h3.912v35.37c2.193-0.523,4.203-1.054,5.791-1.496V39.956h2.973v35.053c0.31-0.092,0.51-0.154,0.51-0.154
		s3.284-0.86,3.285-3.912C310.509,67.892,310.508,37.021,310.508,37.021z"/>
	<path fill="#F2EEE9" d="M259.699,39.956v34.358c0.471,0.421,1.016,0.828,1.746,1.167c0.371,0.173,0.814,0.349,1.291,0.524V39.956
		H259.699z"/>
	<path fill="#F2EEE9" d="M267.588,41.208v36.211c1.32,0.315,2.741,0.611,4.227,0.877V41.208H267.588z"/>
	<path fill="#F2EEE9" d="M277.244,42.616v36.473c1.241,0.139,2.48,0.251,3.694,0.323V42.616H277.244z"/>
	<path fill="#F2EEE9" d="M285.852,42.616v36.829c1.156-0.076,2.403-0.221,3.695-0.412V42.616H285.852z"/>
	<path fill="#F2EEE9" d="M294.037,41.991V78.23c1.333-0.273,2.648-0.568,3.912-0.87v-35.37H294.037z"/>
	<path fill="#F2EEE9" d="M303.74,39.956v35.909c1.369-0.38,2.404-0.685,2.973-0.856V39.956H303.74z"/>
</g>
<path fill="#F2EEE9" d="M259.699,33.239c0,0-4.327,4.094,0,6.716c4.133,2.504,11.176,4.383,24.4,4.383
	c13.224,0,22.457-3.288,22.457-3.288s6.417-1.643,2.895-6.377C305.932,29.94,259.699,33.239,259.699,33.239z"/>
<ellipse fill="#0C2C55" cx="284.099" cy="34.674" rx="25.353" ry="5.282"/>
<g id="aiguille">
	<path fill="#E62450" d="M305.68,215.406c0.074,0.039-7.111-7.441-11.37-3.181c-2.767,2.767-76.468,82.886-76.468,82.886
		s-4.26,5.035-0.58,8.715c3.679,3.68,8.77-0.525,8.77-0.525l82.996-77.021C309.027,226.279,312.154,221.881,305.68,215.406z"/>
	<circle fill="#E62450" cx="284.018" cy="236.903" r="20.658"/>
	<circle fill="#B4E3E1" cx="284.018" cy="236.903" r="7.043"/>
</g>
<rect x="350" y="258" fill="#F2EEE9" width="249" height="139"/>
<rect x="304.676" y="297.117" fill="none" width="303.76" height="81.349"/>
<text transform="matrix(1 0 0 1 385.0967 350.54)" fill="#DDD1C2" font-family="'Montserrat'" font-size="72">48H</text>
<g id="tictac">
	
		<line opacity="0.18" fill="none" stroke="#FFFFFF" stroke-width="7" stroke-miterlimit="10" x1="83.875" y1="148.754" x2="53.233" y2="130.084"/>
	
		<line opacity="0" fill="none" stroke="#FFFFFF" stroke-width="7" stroke-miterlimit="10" x1="198.887" y1="91.611" x2="182.055" y2="64.074"/>
	
		<line opacity="0.34" fill="none" stroke="#FFFFFF" stroke-width="7" stroke-miterlimit="10" x1="68.494" y1="236.363" x2="32.613" y2="236.474"/>
	
		<line opacity="0.45" fill="none" stroke="#FFFFFF" stroke-width="7" stroke-miterlimit="10" x1="492.494" y1="236.363" x2="456.613" y2="236.474"/>
	
		<line opacity="0.78" fill="none" stroke="#FFFFFF" stroke-width="7" stroke-miterlimit="10" x1="198.457" y1="390.207" x2="183.084" y2="422.627"/>
	<line fill="none" stroke="#FFFFFF" stroke-width="7" stroke-miterlimit="10" x1="81.326" y1="328.535" x2="55.693" y2="348.146"/>
	
		<line opacity="0.62" fill="none" stroke="#FFFFFF" stroke-width="7" stroke-miterlimit="10" x1="280.434" y1="447.358" x2="280.674" y2="411.479"/>
	
		<line opacity="0.36" fill="none" stroke="#FFFFFF" stroke-width="7" stroke-miterlimit="10" x1="426.245" y1="153.754" x2="456.887" y2="135.084"/>
	
		<line opacity="0.24" fill="none" stroke="#FFFFFF" stroke-width="7" stroke-miterlimit="10" x1="358.233" y1="91.611" x2="375.065" y2="64.074"/>
</g>
</svg>
